HIERARCHY
ROOT Hips
{
 OFFSET 0.000000 0.000000 0.000000
 CHANNELS 6 Xposition Yposition Zposition Yrotation Xrotation Zrotation
 JOINT Chest
 {
  OFFSET 0.000000 14.634200 -0.016200
  CHANNELS 3 Yrotation Xrotation Zrotation
  JOINT Chest2
  {
   OFFSET 0.000000 8.932900 0.033000
   CHANNELS 3 Yrotation Xrotation Zrotation
   JOINT Chest3
   {
    OFFSET 0.000000 8.892300 0.000000
    CHANNELS 3 Yrotation Xrotation Zrotation
    JOINT Chest4
    {
     OFFSET 0.000000 8.883200 0.000000
     CHANNELS 3 Yrotation Xrotation Zrotation
     JOINT Neck
     {
      OFFSET 0.000000 13.173600 0.000000
      CHANNELS 3 Yrotation Xrotation Zrotation
      JOINT Head
      {
       OFFSET 0.000000 8.324600 0.069800
       CHANNELS 3 Yrotation Xrotation Zrotation
       End Site
       {
        OFFSET 0.000000 15.692400 0.036900
       }
      }
     }
     JOINT RightCollar
     {
      OFFSET -2.619200 8.772200 0.000000
      CHANNELS 3 Yrotation Xrotation Zrotation
      JOINT RightShoulder
      {
       OFFSET -12.922000 0.000000 0.000000
       CHANNELS 3 Yrotation Xrotation Zrotation
       JOINT RightElbow
       {
        OFFSET 0.000000 -27.880900 0.000000
        CHANNELS 3 Yrotation Xrotation Zrotation
        JOINT RightWrist
        {
         OFFSET 0.000000 -22.758700 0.008200
         CHANNELS 3 Yrotation Xrotation Zrotation
         End Site
         {
          OFFSET 0.000000 -16.965000 0.000000
         }
        }
       }
      }
     }
     JOINT LeftCollar
     {
      OFFSET 2.619200 8.772200 0.000000
      CHANNELS 3 Yrotation Xrotation Zrotation
      JOINT LeftShoulder
      {
       OFFSET 12.922000 0.000000 0.000000
       CHANNELS 3 Yrotation Xrotation Zrotation
       JOINT LeftElbow
       {
        OFFSET 0.000000 -27.880900 0.000000
        CHANNELS 3 Yrotation Xrotation Zrotation
        JOINT LeftWrist
        {
         OFFSET 0.000000 -22.758700 0.008200
         CHANNELS 3 Yrotation Xrotation Zrotation
         End Site
         {
          OFFSET 0.000000 -16.965000 0.000000
         }
        }
       }
      }
     }
    }
   }
  }
 }
 JOINT RightHip
 {
  OFFSET -12.026800 0.080100 0.008100
  CHANNELS 3 Yrotation Xrotation Zrotation
  JOINT RightKnee
  {
   OFFSET 0.000000 -42.600800 -0.000200
   CHANNELS 3 Yrotation Xrotation Zrotation
   JOINT RightAnkle
   {
    OFFSET 0.000000 -38.219300 0.054300
    CHANNELS 3 Yrotation Xrotation Zrotation
    JOINT RightToe
    {
     OFFSET 0.000000 -9.685800 15.804700
     CHANNELS 3 Yrotation Xrotation Zrotation
     End Site
     {
      OFFSET 0.000000 -1.422300 5.761700
     }
    }
   }
  }
 }
 JOINT LeftHip
 {
  OFFSET 12.026800 0.080100 0.008100
  CHANNELS 3 Yrotation Xrotation Zrotation
  JOINT LeftKnee
  {
   OFFSET 0.000000 -42.600800 -0.000200
   CHANNELS 3 Yrotation Xrotation Zrotation
   JOINT LeftAnkle
   {
    OFFSET 0.000000 -38.219300 0.054300
    CHANNELS 3 Yrotation Xrotation Zrotation
    JOINT LeftToe
    {
     OFFSET 0.000000 -9.685800 15.804700
     CHANNELS 3 Yrotation Xrotation Zrotation
     End Site
     {
      OFFSET 0.000000 -1.422300 5.761700
     }
    }
   }
  }
 }
}
MOTION
Frames: 16
Frame Time: 0.008333
-14.369027 129.120147 28.151954 168.762546 -18.712177 1.884701 -0.061135 19.138039 2.805693 -0.057695 2.279543 0.336917 -0.086617 3.761982 0.549094 -0.109752 16.566800 2.414700 2.778358 14.418854 -4.996546 4.165824 -10.407284 -6.037074 5.784413 -2.049406 -4.143446 18.223046 -14.404381 -10.900468 -176.008431 -80.993833 -152.129793 20.094459 -27.834649 -87.791135 -9.008588 1.180544 -0.044203 -5.033263 -21.070826 3.821567 68.670399 -65.768730 -105.039706 -3.113353 -32.666817 30.781031 0.919104 -54.440476 7.705803 -28.299321 77.475384 -39.820296 -7.455402 -18.821946 10.689538 0.000887 -0.008533 0.000543 22.351501 -51.282092 -24.255146 78.858292 76.291851 88.522234 6.934214 -2.407955 -5.041190 0.001777 0.002638 0.001089
-14.368531 129.120457 28.152764 168.758880 -18.715266 1.887662 -0.060985 19.135094 2.808140 -0.057776 2.277408 0.338911 -0.086617 3.762637 0.547939 -0.109299 16.565801 2.414854 2.788959 14.453914 -5.008002 4.154428 -10.422968 -6.034607 5.775906 -2.047827 -4.147020 18.227145 -14.398535 -10.900508 -175.860464 -80.971740 -152.272835 20.092691 -27.823989 -87.780649 -9.000070 1.179122 -0.031914 -5.033308 -21.059244 3.809416 68.704417 -65.764823 -105.083800 -3.112411 -32.663914 30.775080 0.918180 -54.434999 7.706784 -28.285981 77.468449 -39.810828 -7.449508 -18.817065 10.693419 0.001460 -0.007342 0.000895 22.352411 -51.280097 -24.252103 78.870637 76.290661 88.526628 6.943845 -2.407336 -5.037204 0.000704 0.001342 0.000432
-14.369068 129.121004 28.152748 168.758452 -18.721401 1.893981 -0.067335 19.129525 2.812035 -0.055659 2.286128 0.330131 -0.088601 3.759486 0.551368 -0.109446 16.559172 2.415474 2.788872 14.473715 -5.016049 4.165597 -10.392576 -6.048440 5.770194 -2.044447 -4.151325 18.221931 -14.390495 -10.903847 -175.717413 -80.938281 -152.397518 20.087436 -27.856460 -87.735531 -9.000529 1.184072 -0.030761 -5.028355 -21.050346 3.808339 68.736591 -65.762538 -105.123153 -3.107400 -32.665739 30.766413 0.919603 -54.426795 7.702930 -28.277687 77.463703 -39.806647 -7.450644 -18.814641 10.692406 0.003567 -0.006062 0.002186 22.355609 -51.272814 -24.255634 78.875699 76.289167 88.530877 6.929446 -2.403683 -5.029266 -0.001556 0.000486 -0.000954
-14.369058 129.121078 28.154134 168.756490 -18.722485 1.897281 -0.069351 19.125524 2.814247 -0.055144 2.289046 0.327421 -0.090311 3.756247 0.555192 -0.112973 16.560392 2.415799 2.790928 14.486370 -5.025464 4.171235 -10.334312 -6.062329 5.771170 -2.050650 -4.157573 18.205093 -14.399787 -10.899520 -175.614260 -80.928252 -152.482830 20.082552 -27.869918 -87.683640 -8.996557 1.180224 -0.030839 -5.023120 -21.040511 3.804060 68.793805 -65.777693 -105.196925 -3.103939 -32.675583 30.763363 0.916790 -54.427352 7.702301 -28.232174 77.467747 -39.768022 -7.453943 -18.808084 10.694167 0.001600 -0.007084 0.000981 22.358397 -51.273925 -24.255429 78.885374 76.291050 88.539114 6.926315 -2.397640 -5.030867 -0.001166 0.000296 -0.000714
-14.368074 129.121243 28.155267 168.755472 -18.725510 1.896235 -0.069700 19.125065 2.819854 -0.058335 2.283058 0.334138 -0.090239 3.760459 0.551144 -0.118647 16.555529 2.424141 2.790619 14.512137 -5.041623 4.172273 -10.339023 -6.067431 5.777037 -2.048527 -4.173216 18.203392 -14.394161 -10.896846 -175.576296 -80.906886 -152.513186 20.077269 -27.888599 -87.641104 -8.987696 1.182285 -0.041246 -5.026917 -21.035484 3.805036 68.880291 -65.818646 -105.300228 -3.082887 -32.686407 30.773549 0.922126 -54.426638 7.697215 -28.219384 77.470286 -39.751389 -7.452881 -18.805390 10.692415 0.000046 -0.008157 0.000028 22.359360 -51.273843 -24.252777 78.900903 76.288584 88.561569 6.922318 -2.395235 -5.040828 0.002400 -0.000782 0.001471
-14.367893 129.121675 28.155528 168.753999 -18.731413 1.898572 -0.069611 19.129973 2.819410 -0.062980 2.279112 0.337775 -0.090700 3.759982 0.551674 -0.118745 16.557876 2.424544 2.785513 14.532107 -5.044411 4.170165 -10.313525 -6.078275 5.779926 -2.052081 -4.179215 18.201320 -14.390423 -10.894136 -175.486766 -80.854920 -152.578969 20.068446 -27.874509 -87.616445 -8.982506 1.180072 -0.040003 -5.040365 -21.032739 3.811323 68.938035 -65.831476 -105.357958 -3.074108 -32.704481 30.753944 0.929886 -54.422571 7.690566 -28.214391 77.475309 -39.747056 -7.451457 -18.806489 10.691304 0.000444 -0.008820 0.000272 22.361439 -51.268578 -24.253359 78.910301 76.286488 88.571030 6.922555 -2.392971 -5.039688 0.001647 -0.000727 0.001010
-14.368217 129.121849 28.156399 168.748774 -18.734119 1.903160 -0.071149 19.129281 2.819977 -0.066040 2.276072 0.337556 -0.086397 3.763939 0.548443 -0.124184 16.548989 2.434968 2.779077 14.563163 -5.055718 4.162958 -10.286025 -6.082606 5.787052 -2.046229 -4.189092 18.201816 -14.394153 -10.900484 -175.428513 -80.850172 -152.628718 20.072313 -27.896537 -87.608346 -8.977054 1.184646 -0.047394 -5.043701 -21.029423 3.816381 69.000254 -65.843066 -105.429496 -3.080339 -32.721008 30.754786 0.947274 -54.425128 7.678910 -28.221972 77.483764 -39.752777 -7.452873 -18.807640 10.691120 0.001199 -0.011188 0.000735 22.368645 -51.265186 -24.256396 78.893575 76.286969 88.555326 6.923898 -2.384635 -5.041484 0.000295 -0.002472 0.000181
-14.368131 129.122147 28.156886 168.744033 -18.738382 1.906106 -0.076376 19.127188 2.817981 -0.062416 2.277526 0.338674 -0.085790 3.766060 0.546161 -0.124148 16.544049 2.441648 2.764988 14.590573 -5.063693 4.113283 -10.213131 -6.070819 5.789965 -2.041299 -4.194596 18.208327 -14.400479 -10.909180 -175.376466 -80.846981 -152.676596 20.074250 -27.897439 -87.609646 -8.976476 1.185722 -0.048735 -5.039262 -21.023389 3.821997 69.065212 -65.847253 -105.509983 -3.096859 -32.729829 30.761210 0.960032 -54.422957 7.671297 -28.233227 77.487109 -39.761222 -7.453653 -18.809645 10.690388 0.002531 -0.011297 0.001551 22.369523 -51.258199 -24.256124 78.877966 76.283994 88.538014 6.932072 -2.383909 -5.042036 -0.002210 -0.001519 -0.001354
-14.367188 129.122341 28.157754 168.741955 -18.741507 1.904727 -0.080618 19.121882 2.824956 -0.058649 2.281724 0.335289 -0.089444 3.764965 0.547811 -0.121059 16.542515 2.442682 2.745585 14.616252 -5.064127 4.100440 -10.196873 -6.073829 5.790702 -2.037824 -4.197037 18.228464 -14.414008 -10.923141 -175.301740 -80.808708 -152.750869 20.057710 -27.855102 -87.604629 -8.976892 1.186426 -0.048007 -5.040658 -21.022482 3.827571 69.109014 -65.842467 -105.558634 -3.099223 -32.739449 30.707722 0.962586 -54.419337 7.671033 -28.240640 77.486798 -39.766446 -7.453102 -18.812078 10.690253 0.002693 -0.010407 0.001650 22.362962 -51.258129 -24.248257 78.889154 76.281970 88.548578 6.933367 -2.384499 -5.046980 -0.001511 -0.001749 -0.000926
-14.367557 129.122203 28.159557 168.742395 -18.739728 1.907269 -0.083755 19.117635 2.824369 -0.057910 2.282097 0.334284 -0.091593 3.756363 0.554411 -0.124765 16.545417 2.439649 2.699547 14.661220 -5.061985 4.136462 -10.224072 -6.094984 5.794845 -2.048088 -4.187253 18.239700 -14.402518 -10.936885 -175.282293 -80.813497 -152.774784 20.061415 -27.885944 -87.602164 -8.973704 1.190737 -0.051798 -5.042290 -21.023738 3.831104 69.122708 -65.836499 -105.571766 -3.080885 -32.730090 30.641201 0.965796 -54.423532 7.659138 -28.221850 77.492483 -39.746113 -7.451361 -18.811834 10.691459 -0.000258 -0.010675 -0.000158 22.356339 -51.261585 -24.243949 78.876085 76.280183 88.532204 6.929231 -2.379937 -5.052141 0.001356 -0.003838 0.000831
-14.367477 129.122309 28.160887 168.740695 -18.740285 1.909735 -0.083779 19.117522 2.823162 -0.058980 2.280765 0.335492 -0.093175 3.752964 0.557092 -0.129495 16.543456 2.438936 2.670973 14.687388 -5.061949 4.064326 -10.162117 -6.072793 5.800599 -2.054412 -4.189406 18.244757 -14.399572 -10.935530 -175.255777 -80.797882 -152.792222 20.052020 -27.891386 -87.600797 -8.968681 1.195138 -0.054397 -5.045595 -21.020341 3.838238 69.179331 -65.833843 -105.634228 -3.045451 -32.699454 30.580498 0.966927 -54.423552 7.655227 -28.229977 77.490217 -39.756947 -7.445094 -18.807679 10.695831 -0.002054 -0.010016 -0.001259 22.357311 -51.260518 -24.244942 78.869462 76.279619 88.525177 6.924052 -2.373765 -5.037423 0.002808 -0.002497 0.001721
-14.366958 129.122531 28.162221 168.737129 -18.741648 1.911720 -0.083704 19.115184 2.826967 -0.060741 2.275759 0.338840 -0.092091 3.757003 0.551411 -0.133877 16.542671 2.437227 2.657741 14.702838 -5.062335 3.993193 -10.112017 -6.048344 5.803510 -2.065586 -4.192646 18.248098 -14.394519 -10.927009 -175.233033 -80.790817 -152.811156 20.046658 -27.902299 -87.589190 -8.965311 1.199662 -0.054413 -5.047790 -21.020936 3.845389 69.217534 -65.818805 -105.672127 -3.010530 -32.666270 30.503307 0.965280 -54.422154 7.656383 -28.276155 77.476678 -39.802685 -7.427260 -18.800930 10.695027 -0.001676 -0.009641 -0.001027 22.358232 -51.258859 -24.243765 78.876608 76.275440 88.529575 6.913436 -2.371031 -5.018138 0.002507 0.000360 0.001537
-14.367486 129.122963 28.163229 168.738797 -18.744650 1.916758 -0.087727 19.113610 2.825616 -0.062522 2.276250 0.336155 -0.092587 3.757027 0.551134 -0.136296 16.542886 2.435728 2.642496 14.716669 -5.061160 3.932615 -10.070938 -6.029207 5.805128 -2.070641 -4.194609 18.251554 -14.394847 -10.919300 -175.176358 -80.770158 -152.863120 20.025341 -27.900059 -87.574090 -8.964945 1.198520 -0.049867 -5.053380 -21.019012 3.851995 69.241476 -65.801564 -105.695502 -2.985711 -32.638823 30.437318 0.967647 -54.419168 7.648945 -28.283889 77.476251 -39.811473 -7.427270 -18.798373 10.697139 -0.001279 -0.009152 -0.000784 22.360077 -51.251641 -24.249101 78.868053 76.269968 88.520615 6.904727 -2.371220 -5.014514 0.002882 0.001001 0.001766
-14.367518 129.123906 28.163214 168.738037 -18.753371 1.921679 -0.091632 19.118754 2.820458 -0.061137 2.275543 0.337467 -0.093023 3.757201 0.550954 -0.138225 16.543236 2.434705 2.562565 14.767904 -5.055971 3.927365 -10.068564 -6.030867 5.804650 -2.075608 -4.196038 18.256621 -14.395178 -10.911614 -175.166381 -80.761567 -152.871976 20.013720 -27.902806 -87.558924 -8.958560 1.199915 -0.050740 -5.066877 -21.017678 3.875533 69.275913 -65.770173 -105.727886 -2.973597 -32.615446 30.380699 0.969986 -54.409844 7.644229 -28.291436 77.477152 -39.820382 -7.426680 -18.796363 10.699677 -0.001183 -0.008862 -0.000725 22.360686 -51.236248 -24.252166 78.840534 76.268955 88.496695 6.905430 -2.368966 -5.011800 0.003630 0.000899 0.002224
-14.366914 129.124690 28.164080 168.742290 -18.760540 1.921834 -0.096906 19.117218 2.823143 -0.060584 2.278661 0.335792 -0.093833 3.757311 0.550711 -0.141818 16.543464 2.433426 2.542878 14.785081 -5.055447 3.857609 -10.026431 -6.004687 5.795066 -2.107032 -4.195619 18.270779 -14.371557 -10.896802 -175.161996 -80.748521 -152.873782 20.003958 -27.891417 -87.545622 -8.957153 1.199428 -0.051402 -5.062529 -21.013979 3.881645 69.282505 -65.753927 -105.746210 -2.975547 -32.604402 30.353291 0.953656 -54.398398 7.658707 -28.328073 77.468989 -39.867482 -7.421529 -18.795116 10.703741 0.000012 -0.007485 0.000007 22.355572 -51.227562 -24.250764 78.835364 76.268233 88.492565 6.906004 -2.368078 -5.012808 0.004880 0.000525 0.002991
-14.367294 129.125696 28.164471 168.749643 -18.770294 1.924908 -0.105702 19.125273 2.818120 -0.058990 2.273293 0.337859 -0.095751 3.761166 0.549454 -0.144880 16.539908 2.432397 2.522072 14.803710 -5.053036 3.785183 -9.984578 -5.975123 5.790216 -2.120057 -4.195085 18.278515 -14.358905 -10.888747 -175.178553 -80.734197 -152.855381 19.992906 -27.878226 -87.538776 -8.955304 1.198520 -0.051730 -5.057729 -21.009772 3.887798 69.294102 -65.748049 -105.770742 -2.975042 -32.598603 30.354486 0.952149 -54.388136 7.652856 -28.376372 77.469403 -39.915073 -7.415823 -18.799942 10.704073 0.000710 -0.007871 0.000435 22.351071 -51.215841 -24.253355 78.834535 76.267430 88.492405 6.896754 -2.366558 -5.012110 0.005065 -0.000192 0.003104
